<?xml version="1.0" encoding="iso-8859-1"?>
<!-- Generator: Adobe Illustrator 19.0.0, SVG Export Plug-In . SVG Version: 6.00 Build 0)  -->
<svg version="1.1" id="Layer_1" xmlns="http://www.w3.org/2000/svg" xmlns:xlink="http://www.w3.org/1999/xlink" x="0px" y="0px"
	 viewBox="0 0 325.678 325.678" style="enable-background:new 0 0 325.678 325.678;" xml:space="preserve">
<g>
	<path style="fill:#51B3DA;" d="M298.178,284.251H27.5c-11.046,0-20-8.954-20-20V61.427c0-11.046,8.954-20,20-20h270.678
		c11.046,0,20,8.954,20,20v202.825C318.178,275.297,309.224,284.251,298.178,284.251z"/>
	<rect x="50.987" y="71.427" style="fill:#FFDA79;" width="209.852" height="182.824"/>
	<circle style="fill:#C7E9F4;" cx="288.839" cy="162.839" r="12.374"/>
	<g>
		<path style="fill:#13829B;" d="M298.178,33.927H27.5c-15.164,0-27.5,12.337-27.5,27.5v202.824c0,15.163,12.336,27.5,27.5,27.5
			h270.678c15.163,0,27.5-12.337,27.5-27.5V61.427C325.678,46.264,313.341,33.927,298.178,33.927z M310.678,264.251
			c0,6.893-5.608,12.5-12.5,12.5H27.5c-6.892,0-12.5-5.607-12.5-12.5V61.427c0-6.893,5.608-12.5,12.5-12.5h270.678
			c6.892,0,12.5,5.607,12.5,12.5V264.251z"/>
		<path style="fill:#13829B;" d="M260.839,63.927H50.987c-4.142,0-7.5,3.357-7.5,7.5v182.824c0,4.143,3.358,7.5,7.5,7.5h209.852
			c4.142,0,7.5-3.357,7.5-7.5V71.427C268.339,67.284,264.981,63.927,260.839,63.927z M253.339,246.751H58.487V78.927h194.852
			V246.751z"/>
		<path style="fill:#13829B;" d="M288.839,142.965c-10.959,0-19.875,8.915-19.875,19.874s8.916,19.874,19.875,19.874
			c10.959,0,19.874-8.915,19.874-19.874S299.798,142.965,288.839,142.965z M288.839,167.713c-2.688,0-4.875-2.186-4.875-4.874
			s2.187-4.874,4.875-4.874c2.688,0,4.874,2.187,4.874,4.874S291.527,167.713,288.839,167.713z"/>
		<path style="fill:#13829B;" d="M27.839,126.969c-4.142,0-7.5,3.357-7.5,7.5v56.74c0,4.143,3.358,7.5,7.5,7.5
			c4.142,0,7.5-3.357,7.5-7.5v-56.74C35.339,130.326,31.981,126.969,27.839,126.969z"/>
		<path style="fill:#13829B;" d="M27.839,99.427c-4.142,0-7.5,3.357-7.5,7.5v4.5c0,4.143,3.358,7.5,7.5,7.5
			c4.142,0,7.5-3.357,7.5-7.5v-4.5C35.339,102.784,31.981,99.427,27.839,99.427z"/>
		<path style="fill:#13829B;" d="M86.989,159.081l16.694,12.681c-1.141,9.113,5.969,16.876,14.871,16.876
			c10.612,0,17.937-10.765,13.862-20.682l20.468-26.497c3.535,0.72,7.07,0.158,10.093-1.46l15.42,11.646
			c-1.11,9.121,6.011,16.832,14.877,16.832c8.886,0,15.994-7.736,14.874-16.852l16.672-12.603
			c9.952,4.201,20.814-3.15,20.814-13.805c0-8.286-6.713-15-15-15c-8.879,0-15.995,7.73-14.874,16.852l-16.672,12.603
			c-3.657-1.544-7.746-1.645-11.641,0.009l-16.546-12.496c0.232-8.534-6.621-15.417-14.986-15.417
			c-10.156,0-17.445,9.947-14.253,19.682l-21.113,27.332c-2.561-0.341-5.133-0.074-7.783,1.04l-16.7-12.686
			c1.132-9.093-5.969-16.869-14.872-16.869c-8.286,0-15,6.73-15,15C66.193,155.919,77.043,163.266,86.989,159.081z"/>
		<path style="fill:#13829B;" d="M223.263,208.927h-134.7c-4.142,0-7.5,3.357-7.5,7.5c0,4.143,3.358,7.5,7.5,7.5h134.7
			c4.142,0,7.5-3.357,7.5-7.5C230.763,212.284,227.405,208.927,223.263,208.927z"/>
	</g>
</g>
<g>
</g>
<g>
</g>
<g>
</g>
<g>
</g>
<g>
</g>
<g>
</g>
<g>
</g>
<g>
</g>
<g>
</g>
<g>
</g>
<g>
</g>
<g>
</g>
<g>
</g>
<g>
</g>
<g>
</g>
</svg>
